<svg width="25" height="24" viewBox="0 0 25 24" fill="none" xmlns="http://www.w3.org/2000/svg">
<path d="M24.5001 12.0002C24.5001 5.3728 19.1275 0.000209808 12.5 0.000209808C5.87259 0.000209808 0.5 5.3728 0.5 12.0002C0.5 17.9898 4.88824 22.9543 10.625 23.8545V15.469H7.57814V12.0002H10.625V9.35648C10.625 6.34898 12.4165 4.68772 15.1576 4.68772C16.4705 4.68772 17.8438 4.9221 17.8438 4.9221V7.87523H16.3306C14.8399 7.87523 14.375 8.80024 14.375 9.74923V12.0002H17.7032L17.1711 15.469H14.375V23.8545C20.1118 22.9543 24.5001 17.9898 24.5001 12.0002Z" fill="#1877F2"/>
<path d="M17.1711 15.4687L17.7032 12H14.375V9.74896C14.375 8.79997 14.8399 7.87496 16.3306 7.87496H17.8438V4.92183C17.8438 4.92183 16.4705 4.68745 15.1576 4.68745C12.4165 4.68745 10.625 6.34871 10.625 9.35621V12H7.57812V15.4687H10.625V23.8542C11.236 23.9501 11.8621 24 12.5 24C13.1379 24 13.7641 23.9501 14.375 23.8542V15.4687H17.1711Z" fill="white"/>
</svg>
