<svg width="54" height="59" viewBox="0 0 54 59" fill="none" xmlns="http://www.w3.org/2000/svg">
<path d="M24.5914 14.303V29.4716L24.1733 29.0391L20.7249 25.4628L19.7142 24.4149V19.3592L20.7249 18.3113L24.1733 14.736L24.5914 14.303ZM24.1733 0.433023L20.7249 4.01025L19.7142 5.05816L17.277 7.58503L14.837 10.1158L13.8272 11.1613L10.3779 14.736L9.95982 15.1705L6.93006 18.3108L5.08121 20.2277L3.48171 21.8876L0.205444 25.2834V32.7937L3.48171 36.1891L5.08263 37.8504L9.95982 42.9071L10.3794 43.3406L13.8272 46.9169L14.837 47.9623L17.277 50.4907L19.7142 53.019L20.7249 54.0669L24.1733 57.6451L24.5914 58.0786V36.6241L24.1733 36.1906L20.7249 32.6143L19.7142 31.5674L17.2756 29.0391L14.837 26.5093V33.6593L17.277 36.1876L19.7142 38.716V45.8675L17.277 43.3421L14.837 40.8138L13.8272 39.7668L10.3794 36.1906L9.95982 35.7571L3.48171 29.0391L5.08263 27.3792L6.93149 25.4623L9.96124 22.3221L13.8287 18.3123L14.8384 17.2644L17.277 14.736L19.7142 12.2077L20.7249 11.1598L24.1733 7.58454L24.5914 7.15102V0.00147453L24.1733 0.433023ZM29.4098 14.303V29.4716L29.8279 29.0391L33.2763 25.4628L34.287 24.4149V19.3592L33.2763 18.3113L29.8279 14.736L29.4098 14.303ZM29.4098 0V7.15151L29.8279 7.58503L33.2763 11.1603L34.287 12.2082L36.7241 14.736L39.1642 17.2644L40.1739 18.3123L44.0413 22.3221L47.0711 25.4623L48.9199 27.3792L50.5194 29.0391L44.0413 35.7556L43.6218 36.1891L40.1739 39.7654L39.1642 40.8123L36.7241 43.3421L34.287 45.869V38.7175L36.7241 36.1891L39.1642 33.6593V26.5093L36.7256 29.0391L34.287 31.5674L33.2763 32.6143L29.8279 36.1906L29.4098 36.6241V58.0767L29.8279 57.6432L33.2763 54.0679L34.287 53.02L36.7241 50.4916L39.1642 47.9623L40.1739 46.9159L43.6218 43.3421L44.0413 42.9086L48.9185 37.8519L50.5194 36.1906L53.7957 32.7952V25.2834L50.5194 21.8876L48.9185 20.2267L47.0697 18.3098L44.0399 15.1696L43.6232 14.736L40.1739 11.1598L39.1642 10.1158L36.7241 7.58601L34.287 5.05816L33.2763 4.01025L29.8279 0.433023L29.4098 0Z" fill="#FFD700"/>
</svg>
