<svg width="150" height="22" viewBox="0 0 150 22" fill="none" xmlns="http://www.w3.org/2000/svg">
<path d="M17.3547 20.7108C15.7617 21.441 13.7682 21.8061 11.3742 21.8061C4.40319 21.8061 0.917664 18.2286 0.917664 11.0736C0.917664 4.30435 4.46281 0.919215 11.5531 0.918152C13.7178 0.918152 15.6542 1.25454 17.3623 1.92731V5.38366C15.6163 4.60753 13.7354 4.21568 11.8374 4.23261C7.0953 4.23261 4.72371 6.51293 4.7227 11.0736C4.7227 16.0211 6.96077 18.4943 11.4369 18.4932C12.2031 18.4782 12.9644 18.362 13.7025 18.1473V12.1545H17.3623L17.3547 20.7108Z" fill="white"/>
<path d="M37.1213 20.7107C35.5284 21.4408 33.5349 21.8059 31.1409 21.8059C24.1678 21.8059 20.6818 18.2284 20.6828 11.0734C20.6828 4.30417 24.2284 0.919032 31.3198 0.917969C33.4824 0.917969 35.4163 1.25435 37.1213 1.92713V5.38348C35.3752 4.60748 33.4944 4.21563 31.5965 4.23243C26.8523 4.23243 24.4807 6.51274 24.4817 11.0734C24.4817 16.0209 26.7198 18.4941 31.1959 18.4931C31.9616 18.478 32.7224 18.3618 33.46 18.1471V12.1543H37.1213V20.7107Z" fill="white"/>
<path d="M49.9521 21.6604H46.196L54.5796 1.061H58.5176L67.0785 21.6604H63.1436L60.8933 16.0422H54.3319L55.5885 12.7294H59.5633L56.4584 4.98765L49.9521 21.6604Z" fill="white"/>
<path d="M70.0641 21.6335V1.06757H79.0424C83.0773 1.06757 85.0942 2.90628 85.0932 6.5837C85.0932 9.0718 83.5231 11.1321 80.3831 12.7646L86.6402 21.667H82.0265L76.017 12.6865V10.944C79.5168 10.3212 81.2662 8.90493 81.2652 6.6953C81.2652 5.17756 80.4458 4.41869 78.807 4.41869H73.7927V21.6367L70.0641 21.6335Z" fill="white"/>
<path d="M103.022 1.061V4.34995H93.1389V9.53128H102.559V12.9446H93.09V18.3475H103.215V21.6604H89.499V1.061H103.022Z" fill="white"/>
<path d="M107.731 21.6604V1.061H111.392L121.821 16.0709V1.061H125.337V21.6604H121.682L111.253 6.3332V21.6604H107.731Z" fill="white"/>
<path d="M132.084 21.6604H128.326L136.708 1.061H140.644L149.205 21.6604H145.269L143.017 16.0422H136.456L137.712 12.7294H141.687L138.59 4.98765L132.084 21.6604Z" fill="white"/>
</svg>
