<svg width="156" height="22" viewBox="0 0 156 22" fill="none" xmlns="http://www.w3.org/2000/svg">
<path d="M17.9271 20.7108C16.2659 21.441 14.187 21.8061 11.6904 21.8061C4.42055 21.8061 0.785645 18.2286 0.785645 11.0736C0.785645 4.30435 4.48273 0.919215 11.8769 0.918152C14.1344 0.918152 16.1537 1.25454 17.9351 1.92731V5.38366C16.1142 4.60753 14.1527 4.21568 12.1734 4.23261C7.22803 4.23261 4.75481 6.51293 4.75375 11.0736C4.75375 16.0211 7.08774 18.4943 11.7557 18.4932C12.5547 18.4782 13.3486 18.362 14.1184 18.1473V12.1545H17.9351L17.9271 20.7108Z" fill="white"/>
<path d="M38.5409 20.7107C36.8797 21.4408 34.8008 21.8059 32.3042 21.8059C25.0322 21.8059 21.3968 18.2284 21.3978 11.0734C21.3978 4.30417 25.0955 0.919032 32.4907 0.917969C34.746 0.917969 36.7628 1.25435 38.5409 1.92713V5.38348C36.72 4.60748 34.7585 4.21563 32.7792 4.23243C27.8317 4.23243 25.3585 6.51274 25.3596 11.0734C25.3596 16.0209 27.6936 18.4941 32.3615 18.4931C33.16 18.478 33.9534 18.3618 34.7226 18.1471V12.1543H38.5409V20.7107Z" fill="white"/>
<path d="M51.9215 21.6604H48.0044L56.7473 1.061H60.8541L69.782 21.6604H65.6784L63.3316 16.0422H56.4891L57.7995 12.7294H61.9446L58.7067 4.98765L51.9215 21.6604Z" fill="white"/>
<path d="M72.8955 21.6335V1.06757H82.2586C86.4664 1.06757 88.5697 2.90628 88.5687 6.5837C88.5687 9.0718 86.9314 11.1321 83.6568 12.7646L90.182 21.667H85.3706L79.1036 12.6865V10.944C82.7533 10.3212 84.5777 8.90493 84.5766 6.6953C84.5766 5.17756 83.7221 4.41869 82.0131 4.41869H76.7839V21.6367L72.8955 21.6335Z" fill="white"/>
<path d="M107.266 1.061V4.34995H96.9592V9.53128H106.783V12.9446H96.9082V18.3475H107.467V21.6604H93.1633V1.061H107.266Z" fill="white"/>
<path d="M112.176 21.6604V1.061H115.995L126.871 16.0709V1.061H130.537V21.6604H126.726L115.85 6.3332V21.6604H112.176Z" fill="white"/>
<path d="M137.573 21.6604H133.654L142.396 1.061H146.501L155.429 21.6604H151.323L148.975 16.0422H142.132L143.443 12.7294H147.588L144.358 4.98765L137.573 21.6604Z" fill="white"/>
</svg>
