<svg width="25" height="24" viewBox="0 0 25 24" fill="none" xmlns="http://www.w3.org/2000/svg">
<mask id="mask0_4810_9247" style="mask-type:alpha" maskUnits="userSpaceOnUse" x="0" y="0" width="25" height="24">
<rect x="0.515625" width="24" height="24" fill="#D9D9D9"/>
</mask>
<g mask="url(#mask0_4810_9247)">
<path d="M16.6156 13.2998L15.1656 11.8498C15.3156 11.0665 15.0906 10.3331 14.4906 9.64981C13.8906 8.96647 13.1156 8.69981 12.1656 8.84981L10.7156 7.39981C10.999 7.26647 11.2865 7.16647 11.5781 7.0998C11.8698 7.03314 12.1823 6.9998 12.5156 6.9998C13.7656 6.9998 14.8281 7.4373 15.7031 8.3123C16.5781 9.1873 17.0156 10.2498 17.0156 11.4998C17.0156 11.8331 16.9823 12.1456 16.9156 12.4373C16.849 12.729 16.749 13.0165 16.6156 13.2998ZM19.8156 16.4498L18.3656 15.0498C18.999 14.5665 19.5615 14.0373 20.0531 13.4623C20.5448 12.8873 20.9656 12.2331 21.3156 11.4998C20.4823 9.81647 19.2865 8.47897 17.7281 7.48731C16.1698 6.49564 14.4323 5.9998 12.5156 5.9998C12.0323 5.9998 11.5573 6.03314 11.0906 6.0998C10.624 6.16647 10.1656 6.26647 9.71562 6.39981L8.16563 4.8498C8.84896 4.56647 9.54896 4.35397 10.2656 4.2123C10.9823 4.07064 11.7323 3.9998 12.5156 3.9998C15.0323 3.9998 17.274 4.69564 19.2406 6.08731C21.2073 7.47897 22.6323 9.28314 23.5156 11.4998C23.1323 12.4831 22.6281 13.3956 22.0031 14.2373C21.3781 15.079 20.649 15.8165 19.8156 16.4498ZM20.3156 22.5998L16.1156 18.4498C15.5323 18.6331 14.9448 18.7706 14.3531 18.8623C13.7615 18.954 13.149 18.9998 12.5156 18.9998C9.99896 18.9998 7.75729 18.304 5.79063 16.9123C3.82396 15.5206 2.39896 13.7165 1.51562 11.4998C1.86562 10.6165 2.30729 9.79564 2.84063 9.03731C3.37396 8.27897 3.98229 7.5998 4.66563 6.9998L1.91563 4.1998L3.31563 2.7998L21.7156 21.1998L20.3156 22.5998ZM6.06563 8.39981C5.58229 8.83314 5.14063 9.30814 4.74063 9.82481C4.34063 10.3415 3.99896 10.8998 3.71563 11.4998C4.54896 13.1831 5.74479 14.5206 7.30312 15.5123C8.86146 16.504 10.599 16.9998 12.5156 16.9998C12.849 16.9998 13.174 16.979 13.4906 16.9373C13.8073 16.8956 14.1323 16.8498 14.4656 16.7998L13.5656 15.8498C13.3823 15.8998 13.2073 15.9373 13.0406 15.9623C12.874 15.9873 12.699 15.9998 12.5156 15.9998C11.2656 15.9998 10.2031 15.5623 9.32812 14.6873C8.45312 13.8123 8.01562 12.7498 8.01562 11.4998C8.01562 11.3165 8.02812 11.1415 8.05312 10.9748C8.07812 10.8081 8.11562 10.6331 8.16563 10.4498L6.06563 8.39981Z" fill="#B3B3B3"/>
</g>
</svg>
