<svg width="56" height="59" viewBox="0 0 56 59" fill="none" xmlns="http://www.w3.org/2000/svg">
<path d="M25.431 14.303V29.4716L24.995 29.0391L21.3989 25.4628L20.3448 24.4149V19.3592L21.3989 18.3113L24.995 14.736L25.431 14.303ZM24.995 0.433023L21.3989 4.01025L20.3448 5.05816L17.8032 7.58503L15.2586 10.1158L14.2056 11.1613L10.6085 14.736L10.1724 15.1705L7.01282 18.3108L5.08473 20.2277L3.41668 21.8876L0 25.2834V32.7937L3.41668 36.1891L5.08621 37.8504L10.1724 42.9071L10.6099 43.3406L14.2056 46.9169L15.2586 47.9623L17.8032 50.4907L20.3448 53.019L21.3989 54.0669L24.995 57.6451L25.431 58.0786V36.6241L24.995 36.1906L21.3989 32.6143L20.3448 31.5674L17.8017 29.0391L15.2586 26.5093V33.6593L17.8032 36.1876L20.3448 38.716V45.8675L17.8032 43.3421L15.2586 40.8138L14.2056 39.7668L10.6099 36.1906L10.1724 35.7571L3.41668 29.0391L5.08621 27.3792L7.0143 25.4623L10.1739 22.3221L14.2071 18.3123L15.2601 17.2644L17.8032 14.736L20.3448 12.2077L21.3989 11.1598L24.995 7.58454L25.431 7.15102V0.00147453L24.995 0.433023ZM30.4559 14.303V29.4716L30.892 29.0391L34.4881 25.4628L35.5422 24.4149V19.3592L34.4881 18.3113L30.892 14.736L30.4559 14.303ZM30.4559 0V7.15151L30.892 7.58503L34.4881 11.1603L35.5422 12.2082L38.0838 14.736L40.6284 17.2644L41.6814 18.3123L45.7146 22.3221L48.8742 25.4623L50.8023 27.3792L52.4703 29.0391L45.7146 35.7556L45.277 36.1891L41.6814 39.7654L40.6284 40.8123L38.0838 43.3421L35.5422 45.869V38.7175L38.0838 36.1891L40.6284 33.6593V26.5093L38.0853 29.0391L35.5422 31.5674L34.4881 32.6143L30.892 36.1906L30.4559 36.6241V58.0767L30.892 57.6432L34.4881 54.0679L35.5422 53.02L38.0838 50.4916L40.6284 47.9623L41.6814 46.9159L45.277 43.3421L45.7146 42.9086L50.8008 37.8519L52.4703 36.1906L55.887 32.7952V25.2834L52.4703 21.8876L50.8008 20.2267L48.8727 18.3098L45.7131 15.1696L45.2785 14.736L41.6814 11.1598L40.6284 10.1158L38.0838 7.58601L35.5422 5.05816L34.4881 4.01025L30.892 0.433023L30.4559 0Z" fill="#FFD700"/>
</svg>
